[Header]
FileType HTR
DataType HTRS
FileVersion 1
NumSegments 64
NumFrames 4
DataFrameRate 24
EulerRotationOrder ZYX
CalibrationUnits mm
RotationUnits Degrees
GlobalAxisofGravity Y
BoneLengthAxis Y
ScaleFactor 1.0
[SegmentNames&Hierarchy]
Hips	GLOBAL
Spine	Hips
Spine1	Spine
Spine2	Spine1
Neck	Spine2
Head	Neck
LeftEye	Head
RightEye	Head
LeftShoulder	Spine2
LeftArm	LeftShoulder
LeftForeArm	LeftArm
LeftHand	LeftForeArm
LeftHandThumb1	LeftHand
LeftHandThumb2	LeftHandThumb1
LeftHandThumb3	LeftHandThumb2
LeftHandThumb4	LeftHandThumb3
LeftHandIndex1	LeftHand
LeftHandIndex2	LeftHandIndex1
LeftHandIndex3	LeftHandIndex2
LeftHandIndex4	LeftHandIndex3
LeftHandMiddle1	LeftHand
LeftHandMiddle2	LeftHandMiddle1
LeftHandMiddle3	LeftHandMiddle2
LeftHandMiddle4	LeftHandMiddle3
LeftHandRing1	LeftHand
LeftHandRing2	LeftHandRing1
LeftHandRing3	LeftHandRing2
LeftHandRing4	LeftHandRing3
LeftHandPinky1	LeftHand
LeftHandPinky2	LeftHandPinky1
LeftHandPinky3	LeftHandPinky2
LeftHandPinky4	LeftHandPinky3
RightShoulder	Spine2
RightArm	RightShoulder
RightForeArm	RightArm
RightHand	RightForeArm
RightHandPinky1	RightHand
RightHandPinky2	RightHandPinky1
RightHandPinky3	RightHandPinky2
RightHandPinky4	RightHandPinky3
RightHandRing1	RightHand
RightHandRing2	RightHandRing1
RightHandRing3	RightHandRing2
RightHandRing4	RightHandRing3
RightHandMiddle1	RightHand
RightHandMiddle2	RightHandMiddle1
RightHandMiddle3	RightHandMiddle2
RightHandMiddle4	RightHandMiddle3
RightHandIndex1	RightHand
RightHandIndex2	RightHandIndex1
RightHandIndex3	RightHandIndex2
RightHandIndex4	RightHandIndex3
RightHandThumb1	RightHand
RightHandThumb2	RightHandThumb1
RightHandThumb3	RightHandThumb2
RightHandThumb4	RightHandThumb3
LeftUpLeg	Hips
LeftLeg	LeftUpLeg
LeftFoot	LeftLeg
LeftToeBase	LeftFoot
RightUpLeg	Hips
RightLeg	RightUpLeg
RightFoot	RightLeg
RightToeBase	RightFoot
[BasePosition]
Hips	0	0	0	0	0	0	1
Spine	0	0	0	0	0	0	1
Spine1	0	0	0	0	0	0	1
Spine2	0	0	0	0	0	0	1
Neck	0	0	0	0	0	0	1
Head	0	0	0	0	0	0	1
LeftEye	0	0	0	0	0	0	1
RightEye	0	0	0	0	0	0	1
LeftShoulder	0	0	0	0	0	0	1
LeftArm	0	0	0	0	0	0	1
LeftForeArm	0	0	0	0	0	0	1
LeftHand	0	0	0	0	0	0	1
LeftHandThumb1	0	0	0	0	0	0	1
LeftHandThumb2	0	0	0	0	0	0	1
LeftHandThumb3	0	0	0	0	0	0	1
LeftHandThumb4	0	0	0	0	0	0	1
LeftHandIndex1	0	0	0	0	0	0	1
LeftHandIndex2	0	0	0	0	0	0	1
LeftHandIndex3	0	0	0	0	0	0	1
LeftHandIndex4	0	0	0	0	0	0	1
LeftHandMiddle1	0	0	0	0	0	0	1
LeftHandMiddle2	0	0	0	0	0	0	1
LeftHandMiddle3	0	0	0	0	0	0	1
LeftHandMiddle4	0	0	0	0	0	0	1
LeftHandRing1	0	0	0	0	0	0	1
LeftHandRing2	0	0	0	0	0	0	1
LeftHandRing3	0	0	0	0	0	0	1
LeftHandRing4	0	0	0	0	0	0	1
LeftHandPinky1	0	0	0	0	0	0	1
LeftHandPinky2	0	0	0	0	0	0	1
LeftHandPinky3	0	0	0	0	0	0	1
LeftHandPinky4	0	0	0	0	0	0	1
RightShoulder	0	0	0	0	0	0	1
RightArm	0	0	0	0	0	0	1
RightForeArm	0	0	0	0	0	0	1
RightHand	0	0	0	0	0	0	1
RightHandPinky1	0	0	0	0	0	0	1
RightHandPinky2	0	0	0	0	0	0	1
RightHandPinky3	0	0	0	0	0	0	1
RightHandPinky4	0	0	0	0	0	0	1
RightHandRing1	0	0	0	0	0	0	1
RightHandRing2	0	0	0	0	0	0	1
RightHandRing3	0	0	0	0	0	0	1
RightHandRing4	0	0	0	0	0	0	1
RightHandMiddle1	0	0	0	0	0	0	1
RightHandMiddle2	0	0	0	0	0	0	1
RightHandMiddle3	0	0	0	0	0	0	1
RightHandMiddle4	0	0	0	0	0	0	1
RightHandIndex1	0	0	0	0	0	0	1
RightHandIndex2	0	0	0	0	0	0	1
RightHandIndex3	0	0	0	0	0	0	1
RightHandIndex4	0	0	0	0	0	0	1
RightHandThumb1	0	0	0	0	0	0	1
RightHandThumb2	0	0	0	0	0	0	1
RightHandThumb3	0	0	0	0	0	0	1
RightHandThumb4	0	0	0	0	0	0	1
LeftUpLeg	0	0	0	0	0	0	1
LeftLeg	0	0	0	0	0	0	1
LeftFoot	0	0	0	0	0	0	1
LeftToeBase	0	0	0	0	0	0	1
RightUpLeg	0	0	0	0	0	0	1
RightLeg	0	0	0	0	0	0	1
RightFoot	0	0	0	0	0	0	1
RightToeBase	0	0	0	0	0	0	1
[Hips]
260	219.5297546	987.2516479	37.71567917	5.328807354	-3.239799976	1.352657676	1.0
261	169.3487854	973.7941895	29.46904755	7.477832317	-2.078705788	2.872633219	1.0
262	128.2984161	969.8708496	14.77255344	6.403132439	-1.879456162	3.394422293	1.0
263	107.1669464	977.2701416	1.63569212	4.660342216	-2.073359013	1.169809103	1.0
[Spine]
260	0	101.8159943	1.315000057	3.475874662	0.4935265779	6.876205444	1.0
261	0	101.8159943	1.315000057	2.696323633	1.063004971	2.306544065	1.0
262	0	101.8159943	1.315000057	4.515010834	0.628873229	0.3727732003	1.0
263	0	101.8159943	1.315000057	6.578400135	-0.1161087528	3.22963047	1.0
[Spine1]
260	0	100.8349991	-10.00800037	1.292538881	0.3252664208	3.170862675	1.0
261	0	100.8349991	-10.00800037	0.9124937057	0.432700485	2.719707727	1.0
262	0	100.8349991	-10.00800037	2.178647041	0.3347406089	2.245199919	1.0
263	0	100.8349991	-10.00800037	3.519505978	0.1585848033	2.020949602	1.0
[Spine2]
260	0	91	-13.73399925	1.2639364	0.4034364522	3.16270113	1.0
261	0	91	-13.73399925	0.876328826	0.5080385208	2.713267088	1.0
262	0	91	-13.73399925	2.145177364	0.4416003525	2.241910934	1.0
263	0	91	-13.73399925	3.494598389	0.2813784182	2.022038937	1.0
[Neck]
260	0	166.7169952	-25.16200066	5.926616669	1.414176583	-6.589440346	1.0
261	0	166.7169952	-25.16200066	5.747894287	0.6887180209	-5.894657612	1.0
262	0	166.7169952	-25.16200066	3.089073896	0.9642946124	-5.741770744	1.0
263	0	166.7169952	-25.16200066	0.4244980514	1.559394121	-5.749531746	1.0
[Head]
260	0	96.17900085	16.84999847	-40.51854706	38.66231537	-22.60231781	1.0
261	0	96.17900085	16.84999847	-42.92095566	37.799366	-21.65740395	1.0
262	0	96.17900085	16.84999847	-44.97734833	38.42996979	-20.73390579	1.0
263	0	96.17900085	16.84999847	-45.40965652	40.17656326	-21.10185623	1.0
[LeftEye]
260	30.6760006	64.09500122	92.83599854	0	0	0	1.0
261	30.6760006	64.09500122	92.83599854	0	0	0	1.0
262	30.6760006	64.09500122	92.83599854	0	0	0	1.0
263	30.6760006	64.09500122	92.83599854	0	0	0	1.0
[RightEye]
260	-30.6760006	64.09500122	92.83499908	0	0	0	1.0
261	-30.6760006	64.09500122	92.83499908	0	0	0	1.0
262	-30.6760006	64.09500122	92.83499908	0	0	0	1.0
263	-30.6760006	64.09500122	92.83499908	0	0	0	1.0
[LeftShoulder]
260	45.70400238	109.4599991	-26.28000069	4.096313953	-10.71936607	-7.455984592	1.0
261	45.70400238	109.4599991	-26.28000069	4.13342762	-10.81031513	-7.949989319	1.0
262	45.70400238	109.4599991	-26.28000069	4.055400372	-10.8504076	-6.726074219	1.0
263	45.70400238	109.4599991	-26.28000069	3.920698881	-10.5485754	-4.63340807	1.0
[LeftArm]
260	105.923996	-5.24600029	-22.32099915	45.76952362	25.57280159	-44.91825867	1.0
261	105.923996	-5.24600029	-22.32099915	48.08416748	28.31661224	-39.25299835	1.0
262	105.923996	-5.24600029	-22.32099915	47.57138824	28.44293404	-39.20931625	1.0
263	105.923996	-5.24600029	-22.32099915	45.81707382	25.88294601	-43.70969391	1.0
[LeftForeArm]
260	278.414978	-0.0009999999311	0	0.0001643935684	-83.59012604	-0.0003984254436	1.0
261	278.414978	-0.0009999999311	0	0.0001373280538	-91.53858948	-0.0003814686788	1.0
262	278.414978	-0.0009999999311	0	-0.0001068115234	-93.64244843	-0.0001220703125	1.0
263	278.414978	-0.0009999999311	0	-0.001641866751	-89.18557739	0.00120044779	1.0
[LeftHand]
260	283.2879944	0	0	36.84687424	-39.31582642	-34.91155624	1.0
261	283.2879944	0	0	32.62048721	-31.97107315	-31.46039391	1.0
262	283.2879944	0	0	34.07813644	-30.31815147	-28.67677879	1.0
263	283.2879944	0	0	37.64211273	-34.98731995	-28.26646423	1.0
[LeftHandThumb1]
260	24.6609993	-15.75	26.8239994	-1.44146359	-8.319262505	8.653952599	1.0
261	24.6609993	-15.75	26.8239994	-1.441489577	-8.319265366	8.653964043	1.0
262	24.6609993	-15.75	26.8239994	-1.4414711	-8.319277763	8.653958321	1.0
263	24.6609993	-15.75	26.8239994	-1.441474557	-8.319266319	8.65396595	1.0
[LeftHandThumb2]
260	32.29800034	-18.64699936	18.64699936	-0.9986221194	48.0361557	-30.10182762	1.0
261	32.29800034	-18.64699936	18.64699936	-0.9985877275	48.03616333	-30.10181236	1.0
262	32.29800034	-18.64699936	18.64699936	-0.9986132383	48.0361824	-30.10182953	1.0
263	32.29800034	-18.64699936	18.64699936	-0.9986121655	48.0361557	-30.10182381	1.0
[LeftHandThumb3]
260	26.52600098	-15.31499958	15.31499958	7.522194386	50.02408981	24.38757896	1.0
261	26.52600098	-15.31499958	15.31499958	7.522173405	50.02409744	24.3875618	1.0
262	26.52600098	-15.31499958	15.31499958	7.522146702	50.02408981	24.38756371	1.0
263	26.52600098	-15.31499958	15.31499958	7.522145271	50.02409363	24.38753891	1.0
[LeftHandThumb4]
260	19.54599953	-11.28499985	11.28499985	0	0	0	1.0
261	19.54599953	-11.28499985	11.28499985	0	0	0	1.0
262	19.54599953	-11.28499985	11.28499985	0	0	0	1.0
263	19.54599953	-11.28499985	11.28499985	0	0	0	1.0
[LeftHandIndex1]
260	91.09299469	-5.170999527	22.60099792	-1.706928015	9.272192955	-79.12528992	1.0
261	91.09299469	-5.170999527	22.60099792	-1.706924319	9.272182465	-79.12528229	1.0
262	91.09299469	-5.170999527	22.60099792	-1.706932068	9.272175789	-79.12528229	1.0
263	91.09299469	-5.170999527	22.60099792	-1.706924558	9.272183418	-79.12528229	1.0
[LeftHandIndex2]
260	36.76399994	0	0	-5.084222794	5.778054237	-82.67962646	1.0
261	36.76399994	0	0	-5.084228516	5.778057098	-82.67964935	1.0
262	36.76399994	0	0	-5.084236145	5.77806139	-82.67962646	1.0
263	36.76399994	0	0	-5.084228039	5.778051853	-82.67964172	1.0
[LeftHandIndex3]
260	28.83100128	0	0	-6.449674129	5.791749477	-96.16447449	1.0
261	28.83100128	0	0	-6.449681759	5.791752815	-96.16448212	1.0
262	28.83100128	0	0	-6.449681759	5.79175806	-96.16448975	1.0
263	28.83100128	0	0	-6.449677944	5.791757107	-96.16447449	1.0
[LeftHandIndex4]
260	23.92700005	0	0	0	0	0	1.0
261	23.92700005	0	0	0	0	0	1.0
262	23.92700005	0	0	0	0	0	1.0
263	23.92700005	0	0	0	0	0	1.0
[LeftHandMiddle1]
260	95.33399963	0	0	-6.494778156	5.273256779	-74.30394745	1.0
261	95.33399963	0	0	-6.494757652	5.273255825	-74.30394745	1.0
262	95.33399963	0	0	-6.494755745	5.273246288	-74.30394745	1.0
263	95.33399963	0	0	-6.494761944	5.273247719	-74.30393982	1.0
[LeftHandMiddle2]
260	36.98199844	0	0	-7.583480358	5.554404259	-107.5965729	1.0
261	36.98199844	0	0	-7.583490849	5.554388046	-107.5966034	1.0
262	36.98199844	0	0	-7.583501339	5.554382801	-107.5966034	1.0
263	36.98199844	0	0	-7.583493233	5.55439806	-107.5965881	1.0
[LeftHandMiddle3]
260	29.50900078	0	0	-4.044071674	5.547115326	-72.16721344	1.0
261	29.50900078	0	0	-4.04407835	5.547124386	-72.16720581	1.0
262	29.50900078	0	0	-4.044078827	5.547126293	-72.16720581	1.0
263	29.50900078	0	0	-4.044083118	5.547140121	-72.16720581	1.0
[LeftHandMiddle4]
260	28.3390007	0	0	0	0	0	1.0
261	28.3390007	0	0	0	0	0	1.0
262	28.3390007	0	0	0	0	0	1.0
263	28.3390007	0	0	0	0	0	1.0
[LeftHandRing1]
260	91.04499817	-0.4390000105	-18.65100098	-7.093585014	2.507947445	-79.76668549	1.0
261	91.04499817	-0.4390000105	-18.65100098	-7.093590736	2.5079391	-79.76667786	1.0
262	91.04499817	-0.4390000105	-18.65100098	-7.093585968	2.507940054	-79.7666626	1.0
263	91.04499817	-0.4390000105	-18.65100098	-7.093584538	2.507949114	-79.76668549	1.0
[LeftHandRing2]
260	31.54000092	0	0	-6.249147892	5.809808731	-94.18067932	1.0
261	31.54000092	0	0	-6.249129295	5.809827805	-94.18068695	1.0
262	31.54000092	0	0	-6.249162197	5.809819698	-94.18068695	1.0
263	31.54000092	0	0	-6.249161243	5.809810638	-94.18070221	1.0
[LeftHandRing3]
260	29.37700081	0	0	-2.898620129	5.038873196	-59.79806137	1.0
261	29.37700081	0	0	-2.898630857	5.038857937	-59.79807281	1.0
262	29.37700081	0	0	-2.898601532	5.038885117	-59.79807663	1.0
263	29.37700081	0	0	-2.898605108	5.038873672	-59.79806519	1.0
[LeftHandRing4]
260	26.47500038	0	0	0	0	0	1.0
261	26.47500038	0	0	0	0	0	1.0
262	26.47500038	0	0	0	0	0	1.0
263	26.47500038	0	0	0	0	0	1.0
[LeftHandPinky1]
260	80.77799988	-4.887000084	-38.06099701	-15.74281597	5.236316681	-84.9630661	1.0
261	80.77799988	-4.887000084	-38.06099701	-15.74280453	5.236326694	-84.9630661	1.0
262	80.77799988	-4.887000084	-38.06099701	-15.74280167	5.236337185	-84.96305084	1.0
263	80.77799988	-4.887000084	-38.06099701	-15.74280548	5.236320496	-84.96307373	1.0
[LeftHandPinky2]
260	36	0	0	-2.46551919	4.761460781	-54.73122025	1.0
261	36	0	0	-2.465528965	4.761482239	-54.73120499	1.0
262	36	0	0	-2.46550703	4.761449814	-54.73118973	1.0
263	36	0	0	-2.465521336	4.761456013	-54.73118591	1.0
[LeftHandPinky3]
260	21.14200211	0	0	-4.929657936	5.756189346	-81.14133453	1.0
261	21.14200211	0	0	-4.929641247	5.756198406	-81.14133453	1.0
262	21.14200211	0	0	-4.92964983	5.756206036	-81.14134216	1.0
263	21.14200211	0	0	-4.929664612	5.756194115	-81.14133453	1.0
[LeftHandPinky4]
260	19.75699997	0	0	0	0	0	1.0
261	19.75699997	0	0	0	0	0	1.0
262	19.75699997	0	0	0	0	0	1.0
263	19.75699997	0	0	0	0	0	1.0
[RightShoulder]
260	-45.70000076	109.4620056	-26.28000069	2.488345861	1.794437289	-1.783023	1.0
261	-45.70000076	109.4620056	-26.28000069	2.557245493	-0.3659857213	-2.019991636	1.0
262	-45.70000076	109.4620056	-26.28000069	2.26661849	1.604356527	-4.59325695	1.0
263	-45.70000076	109.4620056	-26.28000069	2.06886363	5.225266457	-5.375231266	1.0
[RightArm]
260	-105.9280014	-5.248000145	-22.32099915	58.19080353	-27.30793381	35.47838593	1.0
261	-105.9280014	-5.248000145	-22.32099915	61.2073822	-21.49238586	37.85331345	1.0
262	-105.9280014	-5.248000145	-22.32099915	62.00123978	-17.75380898	43.65513611	1.0
263	-105.9280014	-5.248000145	-22.32099915	61.96586609	-17.77672005	43.9344902	1.0
[RightForeArm]
260	-278.414978	0	0	-0.0001220729318	98.71038055	-0.0001068135025	1.0
261	-278.414978	0	0	0.0007629403262	91.98061371	0.0005798348575	1.0
262	-278.414978	0	0	9.043902537e-05	85.71976471	0.0001231235365	1.0
263	-278.414978	0	0	-1.318517025e-05	86.71870422	-1.467601464e-06	1.0
[RightHand]
260	-283.2879944	0	0.0009999999311	27.9229393	23.25254059	24.71051788	1.0
261	-283.2879944	0	0.0009999999311	25.26474762	31.07582664	23.45455742	1.0
262	-283.2879944	0	0.0009999999311	25.70798683	37.45284271	19.16991234	1.0
263	-283.2879944	0	0.0009999999311	25.86697578	36.86365509	13.61258888	1.0
[RightHandPinky1]
260	-80.76699829	-4.885000229	-38.06000137	-14.51716423	-4.048306465	84.21438599	1.0
261	-80.76699829	-4.885000229	-38.06000137	-14.51716328	-4.048316479	84.21437836	1.0
262	-80.76699829	-4.885000229	-38.06000137	-14.51716328	-4.048308372	84.21437073	1.0
263	-80.76699829	-4.885000229	-38.06000137	-14.51717377	-4.048325062	84.21437073	1.0
[RightHandPinky2]
260	-36	0	0.0009999999311	-1.960840225	-3.784813881	54.78262711	1.0
261	-36	0	0.0009999999311	-1.960835576	-3.784821033	54.78261566	1.0
262	-36	0	0.0009999999311	-1.960839748	-3.784816265	54.78264618	1.0
263	-36	0	0.0009999999311	-1.960824251	-3.784825087	54.78262711	1.0
[RightHandPinky3]
260	-21.14200211	0	0	-3.919521809	-4.575715065	81.15796661	1.0
261	-21.14200211	0	0	-3.919505358	-4.575723648	81.15796661	1.0
262	-21.14200211	0	0	-3.919510365	-4.575725079	81.15795898	1.0
263	-21.14200211	0	0	-3.91952157	-4.575717449	81.15795898	1.0
[RightHandPinky4]
260	-19.75699997	0	0	0	0	0	1.0
261	-19.75699997	0	0	0	0	0	1.0
262	-19.75699997	0	0	0	0	0	1.0
263	-19.75699997	0	0	0	0	0	1.0
[RightHandRing1]
260	-91.03599548	-0.4390000105	-18.65100098	-5.97585392	-1.320501924	79.0226593	1.0
261	-91.03599548	-0.4390000105	-18.65100098	-5.975853443	-1.320491552	79.02268982	1.0
262	-91.03599548	-0.4390000105	-18.65100098	-5.975867748	-1.320479631	79.02267456	1.0
263	-91.03599548	-0.4390000105	-18.65100098	-5.97586441	-1.32049942	79.02265167	1.0
[RightHandRing2]
260	-31.54000092	0	0	-4.96708107	-4.618291378	94.17275238	1.0
261	-31.54000092	0	0	-4.967087269	-4.618291378	94.17273712	1.0
262	-31.54000092	0	0	-4.967090607	-4.618291855	94.17276001	1.0
263	-31.54000092	0	0	-4.967092037	-4.618299961	94.17274475	1.0
[RightHandRing3]
260	-29.37700081	0	0	-2.306365728	-4.006083488	59.84557343	1.0
261	-29.37700081	0	0	-2.306357622	-4.006089687	59.84557343	1.0
262	-29.37700081	0	0	-2.306352854	-4.006089211	59.84557724	1.0
263	-29.37700081	0	0	-2.306343079	-4.006088257	59.8455658	1.0
[RightHandRing4]
260	-26.47500038	0	0	0	0	0	1.0
261	-26.47500038	0	0	0	0	0	1.0
262	-26.47500038	0	0	0	0	0	1.0
263	-26.47500038	0	0	0	0	0	1.0
[RightHandMiddle1]
260	-95.32500458	0	0	-5.490193844	-4.098504066	73.57289124	1.0
261	-95.32500458	0	0	-5.490175247	-4.098495007	73.57289886	1.0
262	-95.32500458	0	0	-5.490185738	-4.09849596	73.57291412	1.0
263	-95.32500458	0	0	-5.490181446	-4.098511219	73.57289124	1.0
[RightHandMiddle2]
260	-36.98199844	0	0	-6.026575089	-4.415511608	107.5651169	1.0
261	-36.98199844	0	0	-6.026561737	-4.415489674	107.5651169	1.0
262	-36.98199844	0	0	-6.026567459	-4.415493011	107.5651093	1.0
263	-36.98199844	0	0	-6.026581287	-4.415476322	107.5651321	1.0
[RightHandMiddle3]
260	-29.50900078	0	0	-3.216332436	-4.411747932	72.19917297	1.0
261	-29.50900078	0	0	-3.216322422	-4.411737442	72.19916534	1.0
262	-29.50900078	0	0	-3.216339827	-4.411731243	72.19917297	1.0
263	-29.50900078	0	0	-3.216323376	-4.411742687	72.19917297	1.0
[RightHandMiddle4]
260	-28.3390007	0	0.0009999999311	0	0	0	1.0
261	-28.3390007	0	0.0009999999311	0	0	0	1.0
262	-28.3390007	0	0.0009999999311	0	0	0	1.0
263	-28.3390007	0	0.0009999999311	0	0	0	1.0
[RightHandIndex1]
260	-91.08300018	-5.167999744	22.60099792	-0.6033913493	-8.085643768	78.39245605	1.0
261	-91.08300018	-5.167999744	22.60099792	-0.6033847332	-8.085640907	78.39245605	1.0
262	-91.08300018	-5.167999744	22.60099792	-0.6033682227	-8.08564949	78.3924408	1.0
263	-91.08300018	-5.167999744	22.60099792	-0.6033649445	-8.085650444	78.39244843	1.0
[RightHandIndex2]
260	-36.76399994	0	0	-4.042259693	-4.593090534	82.69343567	1.0
261	-36.76399994	0	0	-4.042243004	-4.593068123	82.69345093	1.0
262	-36.76399994	0	0	-4.04223156	-4.593065262	82.69345093	1.0
263	-36.76399994	0	0	-4.04224062	-4.59305954	82.69345856	1.0
[RightHandIndex3]
260	-28.83100128	0	0	-5.126284599	-4.603960037	96.1528244	1.0
261	-28.83100128	0	0	-5.12630558	-4.60396719	96.15283203	1.0
262	-28.83100128	0	0	-5.126276493	-4.603952885	96.15281677	1.0
263	-28.83100128	0	0	-5.126299858	-4.603956699	96.15284729	1.0
[RightHandIndex4]
260	-23.92700005	0	0	0	0	0	1.0
261	-23.92700005	0	0	0	0	0	1.0
262	-23.92700005	0	0	0	0	0	1.0
263	-23.92700005	0	0	0	0	0	1.0
[RightHandThumb1]
260	-24.64799881	-15.72700024	26.82600021	-2.388234138	10.16858673	-8.287032127	1.0
261	-24.64799881	-15.72700024	26.82600021	-2.388250351	10.16858673	-8.287026405	1.0
262	-24.64799881	-15.72700024	26.82600021	-2.388249159	10.16858196	-8.287029266	1.0
263	-24.64799881	-15.72700024	26.82600021	-2.388242006	10.16858482	-8.287024498	1.0
[RightHandThumb2]
260	-32.29800034	-18.64699936	18.64699936	-2.059287548	-49.39984131	30.22305679	1.0
261	-32.29800034	-18.64699936	18.64699936	-2.059310436	-49.39985275	30.22304535	1.0
262	-32.29800034	-18.64699936	18.64699936	-2.059317589	-49.39985657	30.22304726	1.0
263	-32.29800034	-18.64699936	18.64699936	-2.059299946	-49.39985275	30.22305679	1.0
[RightHandThumb3]
260	-26.52600098	-15.31399918	15.31399918	13.49724102	-55.14929581	-27.72498894	1.0
261	-26.52600098	-15.31399918	15.31399918	13.49726105	-55.14929962	-27.72501755	1.0
262	-26.52600098	-15.31399918	15.31399918	13.49729443	-55.14930344	-27.72503853	1.0
263	-26.52600098	-15.31399918	15.31399918	13.49728584	-55.14929962	-27.72504044	1.0
[RightHandThumb4]
260	-19.54599953	-11.28499985	11.28499985	0	0	0	1.0
261	-19.54599953	-11.28499985	11.28499985	0	0	0	1.0
262	-19.54599953	-11.28499985	11.28499985	0	0	0	1.0
263	-19.54599953	-11.28499985	11.28499985	0	0	0	1.0
[LeftUpLeg]
260	82.07800293	-67.51699829	-15.99599934	-27.32889557	20.16083717	31.42063904	1.0
261	82.07800293	-67.51699829	-15.99599934	-22.63646126	14.98600197	36.5389595	1.0
262	82.07800293	-67.51699829	-15.99599934	-19.64280891	11.31439495	37.1908493	1.0
263	82.07800293	-67.51699829	-15.99599934	-29.99253273	10.37607002	33.99237061	1.0
[LeftLeg]
260	0	-443.7049866	2.845999956	28.99667549	1.32331574	-3.720860481	1.0
261	0	-443.7049866	2.845999956	16.36915207	3.826475143	-1.153386235	1.0
262	0	-443.7049866	2.845999956	14.00865173	7.467619419	-0.1429606229	1.0
263	0	-443.7049866	2.845999956	42.36264801	1.519910216	-2.514793634	1.0
[LeftFoot]
260	0	-444.2789917	-29.8219986	22.34423065	-16.51310349	-9.731750488	1.0
261	0	-444.2789917	-29.8219986	11.65684795	-1.619687915	19.3427906	1.0
262	0	-444.2789917	-29.8219986	11.88605595	2.99220562	27.39182472	1.0
263	0	-444.2789917	-29.8219986	4.17122221	-8.660696983	14.94675255	1.0
[LeftToeBase]
260	0	-87.28699493	107.1060028	-9.208238602	-3.08853032e-06	6.737944204e-06	1.0
261	0	-87.28699493	107.1060028	-8.42768383	1.308035553e-05	3.591024506e-05	1.0
262	0	-87.28699493	107.1060028	-8.224785805	-3.548245559e-06	-1.703019188e-05	1.0
263	0	-87.28699493	107.1060028	-6.688060284	4.631813511e-07	2.548524935e-05	1.0
[RightUpLeg]
260	-82.07800293	-67.51699829	-15.99599934	-15.67797947	10.2570467	-5.671670437	1.0
261	-82.07800293	-67.51699829	-15.99599934	-17.22659111	10.60895824	-4.418159485	1.0
262	-82.07800293	-67.51699829	-15.99599934	-17.42955971	9.555805206	-2.29956913	1.0
263	-82.07800293	-67.51699829	-15.99599934	-16.71438599	5.803459644	1.328378201	1.0
[RightLeg]
260	0	-443.7049866	2.861999989	38.04346085	-7.64959383	-6.689169884	1.0
261	0	-443.7049866	2.861999989	38.20637894	-6.974140644	-6.274770737	1.0
262	0	-443.7049866	2.861999989	39.48953247	-6.341451168	-6.078365326	1.0
263	0	-443.7049866	2.861999989	39.26984406	-7.126091957	-6.503018856	1.0
[RightFoot]
260	0	-444.2770081	-29.83799934	-19.10374641	-26.30361366	10.54864883	1.0
261	0	-444.2770081	-29.83799934	-28.77892113	-24.03209686	15.73294353	1.0
262	0	-444.2770081	-29.83799934	-30.6056366	-23.20228386	15.99223995	1.0
263	0	-444.2770081	-29.83799934	-25.20512009	-20.94414711	11.88365936	1.0
[RightToeBase]
260	0	-87.28699493	107.1060028	-8.222354889	-1.0352971e-05	9.402895557e-06	1.0
261	0	-87.28699493	107.1060028	-0.7581672072	-1.26092047e-07	-1.874065333e-06	1.0
262	0	-87.28699493	107.1060028	1.845299812e-05	-1.516695193e-06	3.727493322e-06	1.0
263	0	-87.28699493	107.1060028	-5.189051628	1.21820276e-05	-1.910510946e-06	1.0
[EndOfFile]
